<svg data-v-423bf9ae="" xmlns="http://www.w3.org/2000/svg" viewBox="0 0 244 90" class="iconLeft"><!----><!----><!----><g data-v-423bf9ae="" id="1e5bbd03-7e58-4e30-beeb-4e6fe0a4f42a" fill="white" transform="matrix(5.797100701452709,0,0,5.797100701452709,116.9376409576806,-1.0579678787787685)"><path d="M2.72 5.33L2.72 11.75Q2.72 12.14 2.79 12.31Q2.87 12.49 3.08 12.55Q3.29 12.61 3.74 12.61L3.74 12.61L4.93 12.61Q5.81 12.61 6.39 12.09Q6.97 11.56 7.17 10.67L7.17 10.67Q7.17 10.63 7.25 10.63Q7.32 10.64 7.32 10.68L7.32 10.68Q7.20 11.91 7.20 12.73L7.20 12.73Q7.20 12.84 7.15 12.89Q7.10 12.94 6.99 12.94L6.99 12.94L0.46 12.94Q0.43 12.94 0.43 12.85Q0.43 12.77 0.46 12.77L0.46 12.77Q0.97 12.77 1.20 12.70Q1.43 12.63 1.51 12.43Q1.60 12.22 1.60 11.80L1.60 11.80L1.60 5.32Q1.60 4.90 1.51 4.70Q1.43 4.51 1.20 4.43Q0.97 4.35 0.46 4.35L0.46 4.35Q0.43 4.35 0.43 4.27Q0.43 4.19 0.46 4.19L0.46 4.19L1.16 4.20Q1.78 4.23 2.16 4.23L2.16 4.23Q2.53 4.23 3.15 4.20L3.15 4.20L3.85 4.19Q3.88 4.19 3.88 4.27Q3.88 4.35 3.85 4.35L3.85 4.35Q3.36 4.35 3.12 4.43Q2.88 4.51 2.80 4.71Q2.72 4.91 2.72 5.33L2.72 5.33ZM10.78 13.12Q9.95 13.12 9.32 12.72Q8.69 12.32 8.35 11.64Q8.01 10.96 8.01 10.16L8.01 10.16Q8.01 9.25 8.46 8.62Q8.90 7.98 9.60 7.67Q10.30 7.35 11.03 7.35L11.03 7.35Q11.86 7.35 12.49 7.76Q13.12 8.16 13.45 8.83Q13.79 9.49 13.79 10.23L13.79 10.23Q13.79 11.09 13.38 11.75Q12.96 12.40 12.28 12.76Q11.59 13.12 10.78 13.12L10.78 13.12ZM11.19 12.85Q11.89 12.85 12.26 12.31Q12.64 11.76 12.64 10.67L12.64 10.67Q12.64 9.76 12.37 9.06Q12.10 8.37 11.62 8.00Q11.14 7.63 10.56 7.63L10.56 7.63Q9.87 7.63 9.50 8.16Q9.13 8.68 9.13 9.70L9.13 9.70Q9.13 10.58 9.39 11.30Q9.66 12.03 10.13 12.44Q10.60 12.85 11.19 12.85L11.19 12.85ZM18.73 2.77Q19.47 2.77 19.92 2.99Q20.37 3.21 20.37 3.54L20.37 3.54Q20.37 3.79 20.20 3.93Q20.03 4.06 19.81 4.06L19.81 4.06Q19.59 4.06 19.45 3.96Q19.32 3.85 19.18 3.63L19.18 3.63Q19.00 3.33 18.78 3.19Q18.56 3.04 18.23 3.04L18.23 3.04Q17.47 3.04 17.02 3.96Q16.58 4.89 16.58 6.79L16.58 6.79L16.58 7.69Q17.46 7.64 18.30 7.55L18.30 7.55Q18.34 7.55 18.37 7.64Q18.40 7.74 18.40 7.87L18.40 7.87Q18.40 7.98 18.35 8.11Q18.30 8.23 18.26 8.22L18.26 8.22Q17.47 8.04 16.58 8.01L16.58 8.01L16.58 11.80Q16.58 12.24 16.67 12.43Q16.76 12.63 17.04 12.70Q17.32 12.77 17.92 12.77L17.92 12.77Q17.96 12.77 17.96 12.85Q17.96 12.94 17.92 12.94L17.92 12.94L16.98 12.92Q16.69 12.91 16.09 12.91L16.09 12.91L15.27 12.92Q15.06 12.94 14.69 12.94L14.69 12.94Q14.64 12.94 14.64 12.85Q14.64 12.77 14.69 12.77L14.69 12.77Q15.09 12.77 15.28 12.70Q15.47 12.63 15.54 12.43Q15.61 12.22 15.61 11.80L15.61 11.80L15.61 8.65Q15.61 8.32 15.54 8.16Q15.47 8.01 15.27 7.96Q15.08 7.91 14.63 7.91L14.63 7.91Q14.59 7.91 14.59 7.81Q14.59 7.71 14.63 7.71L14.63 7.71Q15.18 7.71 15.38 7.58Q15.58 7.45 15.60 7.08L15.60 7.08Q15.67 4.80 16.44 3.79Q17.21 2.77 18.73 2.77L18.73 2.77ZM19.22 12.94Q19.18 12.94 19.18 12.85Q19.18 12.77 19.22 12.77L19.22 12.77Q19.73 12.77 19.89 12.58Q20.06 12.39 20.06 11.80L20.06 11.80L20.06 9.23Q20.06 8.72 19.96 8.50Q19.87 8.29 19.61 8.29L19.61 8.29Q19.38 8.29 19.01 8.47L19.01 8.47L19.00 8.47Q18.94 8.47 18.91 8.39Q18.89 8.32 18.94 8.30L18.94 8.30L20.85 7.42L20.90 7.41Q20.94 7.41 20.99 7.45Q21.04 7.49 21.04 7.55L21.04 7.55Q21.04 7.64 21.03 8.11Q21.01 8.57 21.01 9.20L21.01 9.20L21.01 11.80Q21.01 12.39 21.18 12.58Q21.34 12.77 21.85 12.77L21.85 12.77Q21.90 12.77 21.90 12.85Q21.90 12.94 21.85 12.94L21.85 12.94Q21.52 12.94 21.31 12.92L21.31 12.92L20.54 12.91L19.77 12.92Q19.56 12.94 19.22 12.94L19.22 12.94ZM20.45 5.85Q20.13 5.85 19.94 5.67Q19.75 5.49 19.75 5.17L19.75 5.17Q19.75 4.86 19.94 4.68Q20.13 4.51 20.45 4.51L20.45 4.51Q20.76 4.51 20.94 4.68Q21.11 4.86 21.11 5.17L21.11 5.17Q21.11 5.49 20.94 5.67Q20.76 5.85 20.45 5.85L20.45 5.85Z"></path></g><!----><g data-v-423bf9ae="" id="8b86c9c8-5c96-4964-8a33-495de63d5563" transform="matrix(1.1067252117618824,0,0,1.1067252117618824,-4.158964338173753,-11.139718627600999)" stroke="none" fill="white"><path d="M94 88.451s-4.102-3.552-9.551-7.558c-5.447-4.005-37.607-30.81-37.618-30.817L28.482 31.582l55.557 41.349c1.254-3.221 1.553-7.587.457-13.443-6.965-37.248-40.565-43.319-48.514-44.642-4.84-.806-30.285-4.123-31.824-4.167.279 1.514 7.438 26.155 8.972 30.817 2.519 7.654 13.645 39.934 51.517 41.137 5.043.161 8.873-.505 11.748-1.762L91.916 92 94 88.451z"></path></g><!----></svg>